<svg width="300" height="103" viewBox="0 0 300 103" fill="none" xmlns="http://www.w3.org/2000/svg">
<path fill-rule="evenodd" clip-rule="evenodd" d="M184 51C184.154 35.5356 196.5 27 215.5 27C234.5 27 246.347 35.6904 246.5 51C246.654 66.4299 237 75.5 215.5 75.5C194 75.5 183.845 66.5835 184 51ZM200 51C199.741 60.4218 206.086 69.4671 215.5 69C224.549 68.551 229.744 60.057 229.5 51C229.264 42.2512 224.241 34.4385 215.5 34C206.382 33.5426 200.251 41.874 200 51Z" fill="#01478C"/>
<path d="M128.5 75.5V28H142L169 55V28H180V75.5H169L140.5 47V75.5H128.5Z" fill="#01478C"/>
<path d="M106 28V75.5H122V28H106Z" fill="#01478C"/>
<path fill-rule="evenodd" clip-rule="evenodd" d="M51 75.5V28H81.5C88 28 97 33 97 40.5C97 48 90.5 53.5 85 53.5C86.6667 59.1667 92.6 71.5 103 75.5C96.3333 77.6667 81.6 79.5 76 69.5C70.4 59.5 68.6667 55.6667 68.5 55H66V75.5H51ZM66 34.5V48.5H73C79 48.5 81 43.5 81 40.5C81 37.5 78.5 34.5 75 34.5H66Z" fill="#01478C"/>
<path fill-rule="evenodd" clip-rule="evenodd" d="M0 28V75.5H26.5C34.5 75.5 46.5 71.5 46.5 59.5C46.5 49.9 40.1667 47.5 37 47.5C39.1667 46.6667 44 45.5 43.5 36.5C43 27.5 31.5 28 25.5 28H0ZM15.5 46.5V34.5H22.5C23.5 34.5 26.5 34 26.5 39.5C26.5 45 24 46.5 22.5 46.5H15.5ZM22.5 53.5H15.5V68H23.5C26.5 68 29.5 65.5 29.5 60C29.5 54.5 25.5 53.5 22.5 53.5Z" fill="#01478C"/>
<path d="M239.5 75.5L261 51L243 28H261L270.5 41.5L280.5 28H296L275.5 51C280.333 57 292 69.8 300 73C294.833 75.1667 282.7 77.5 275.5 69.5C270.3 63.5 268.167 61 267.5 60L255 75.5H239.5Z" fill="#01478C"/>
<path d="M36 80.5C119.205 98.4425 166.065 97.8023 250 80.5C250 80.5 219.5 102.5 143 102.5C66.5 102.5 36 80.5 36 80.5Z" fill="#01478C"/>
<path d="M36 23C119.198 4.95603 166.075 5.25238 250 23C250 23 216.5 0 141.5 0C66.5 0 36 23 36 23Z" fill="#01478C"/>
</svg>
