<svg version="1.2" xmlns="http://www.w3.org/2000/svg" viewBox="0 0 1676 915" width="1676" height="915">
	<title>logo (41)-svg</title>
	<style>
		.s0 { fill: #5e9440 } 
		.s1 { fill: #818187 } 
		.s2 { fill: #3db54a } 
		.s3 { fill: #79c371 } 
		.s4 { fill: #8bc63f } 
		.s5 { fill: #aad376 } 
		.s6 { fill: #a9d26a } 
	</style>
	<path id="Layer" fill-rule="evenodd" class="s0" d="m185.7 420.2c-9.3-35.5-24.2-72.9-71.8-72.9c-42 0-61.6 29.9-61.6 59.8c0 40.1 26.1 59.7 70.9 82.1c43.9 23.4 96.1 47.7 96.1 111.2c0 57.8-49.4 104.5-122.2 104.5c-23.4 0-41.1-4.6-54.2-7.4c-14.9-6.6-23.3-9.4-28-12.2c-4.6-11.2-10.2-59.7-14.9-86.8l16.8-4.7c7.5 33.6 33.6 89.6 90.5 89.6c42 0 66.3-26.1 66.3-66.2c0-41.1-29.9-59.8-71.9-82.2c-35.4-19.6-90.5-46.7-90.5-109.2c0-53.3 42-99 113.9-99c25.2 0 48.5 6.5 70 13.1c1.8 19.6 4.6 42 9.3 76.5zm67.2 260.5c44.8-3.7 50.4-7.5 50.4-53.2v-222.2c0-47.6-4.7-50.4-50.4-53.2v-15.9h146.5v15.9c-44.8 3.7-50.4 7.4-50.4 53.2v221.3c0 47.6 4.7 50.4 50.4 53.2v15.9h-146.5zm543.2-135.4c-33.6 4.6-35.5 7.4-35.5 40.1v47.6c0 19.6 1 37.4 4.7 53.3c-34.5 7.4-79.3 19.6-124.1 19.6c-121.4 0-203.5-75.7-203.5-185.8c0-128 102.7-190.5 211.9-190.5c46.6 0 87.7 12.1 106.4 15.9c1.8 19.6 4.6 50.4 7.4 86.8l-15.8 3.7c-13.1-68.1-55.1-86.8-108.3-86.8c-84.9 0-146.5 62.6-146.5 164.3c0 80.3 47.6 173.7 154 173.7c18.6 0 36.4-3.7 47.6-9.3c10.2-6.6 17.7-13.1 17.7-36.5v-47.6c0-40.1-3.7-43.9-57.9-47.6v-15.9h140zm344.4 151.3v-15.9c44.8-4.7 47.6-7.5 47.6-66.3l-2.8-225.9h-1.8l-131.6 209.1h-10.3l-127.9-200.7h-1.8l-7.5 157.8c-1.9 45.7-1.9 70-1.9 91.5c1.9 26.1 14 29.8 50.4 34.5v15.9h-127.8v-15.9c32.6-3.7 42.9-10.3 47.6-33.6c3.7-19.6 7.4-42.9 10.2-101.8l7.5-114.8c4.7-71.9 1.9-73.8-47.6-79.4v-14.9h90.5l128.8 183l126-183h93.4v15.9c-49.5 4.6-53.2 5.6-50.4 62.5l4.6 200.8c1.9 58.8 3.8 61.6 51.4 66.2v15.9zm399.4 0v-15.9c35.5-4.6 40.2-8.4 32.7-29.8c-7.5-21.5-18.7-51.4-29.9-85h-118.5c-8.4 24.3-16.8 47.6-24.3 71.9c-11.2 35.5-7.4 40.1 35.5 44.8v15.9h-120.4v-16.8c35.5-4.7 42.9-7.5 61.6-57l114.8-290.3l16.8-4.7c34.5 94.3 71.9 200.7 106.4 296.9c16.8 47.6 24.3 53.2 60.7 56v15.9zm-55.1-296h-0.9c-17.8 47.6-35.5 96.2-52.3 141h102.7z" />
	<path id="Layer" class="s1" d="m812.9 873.9c-1.8 7.5-6.5 29.9-8.4 37.4h-106.4v-7.5c19.6-1.9 21.5-2.8 21.5-23.3v-94.3c0-19.7-1.9-21.5-20.5-23.4v-6.5h61.6v7.4c-18.7 1.9-20.6 1.9-20.6 23.4v93.4c0 13 1.9 16.8 4.7 19.6c4.7 2.8 13.1 2.8 23.3 2.8c13.1 0 21.5-1.9 26.2-7.5c4.6-4.7 8.4-12.1 12.1-23.3zm12.1 37.3v-7.5c19.6-1.8 21.5-2.8 21.5-23.3v-94.3c0-19.6-1.9-21.5-21.5-23.4v-6.5h62.6v7.5c-19.6 1.8-21.5 2.8-21.5 23.3v94.3c0 19.6 1.9 21.5 21.5 23.4v7.4h-62.6zm204.4-116.7c-1.8-11.2-4.6-16.8-7.4-21.5c-4.7-5.6-7.5-7.4-26.2-7.4h-16.8v116.7c0 18.7 1.9 21.5 24.3 22.4v7.5h-68.1v-7.5c21.4-1.9 23.3-4.7 23.3-22.4v-116.7h-14.9c-19.6 0-24.3 1.8-27.1 7.4c-2.8 4.7-4.7 10.3-7.5 21.5h-7.4c1.8-14 1.8-28.9 2.8-42h4.6c3.8 4.7 6.6 5.6 13.1 5.6h93.3c6.6 0 7.5-1.9 12.2-5.6h4.6c0 10.3 1.9 28 2.8 42zm184.8-30.8c-19.6 1.9-21.4 2.8-21.4 22.4v95.3c0 19.6 1.8 21.4 21.4 22.4v7.4h-62.5v-7.4c19.6-1.9 22.4-2.8 22.4-22.4v-47.7h-80.3v47.7c0 19.6 1.9 21.4 21.5 22.4v7.4h-62.5v-7.4c18.6-1.9 20.5-2.8 20.5-22.4v-95.3c0-19.6-1.9-21.5-21.5-22.4v-7.5h61.6v7.5c-17.7 1.9-19.6 2.8-19.6 22.4v38.3h80.3v-38.3c0-19.6-1.9-20.5-19.6-22.4v-7.5h61.6zm18.7 147.6v-7.5c19.6-1.9 21.4-2.8 21.4-23.3v-94.4c0-19.6-1.8-21.4-21.4-23.3v-6.5h62.5v7.4c-19.6 1.9-21.5 2.8-21.5 23.4v94.3c0 19.6 1.9 21.5 21.5 23.3v7.5h-62.5zm239.8-147.5c-14 1.8-19.6 4.6-20.5 14c-0.9 6.5-1.9 16.8-1.9 38.3v19.6c0 28-4.6 47.6-17.7 62.5c-10.3 11.2-27.1 15.9-42 15.9c-14 0-27.1-3.7-38.3-11.2c-14-10.3-20.5-28-20.5-56v-58.8c0-21.5-1.9-22.5-20.5-24.3v-7.5h60.6v7.5c-18.6 1.8-19.6 2.8-19.6 24.3v53.2c0 38.3 15 59.7 44.8 59.7c33.6 0 44.8-28.9 44.8-68.1v-17.8c0-21.4-0.9-31.7-1.8-39.2c-1.9-9.3-6.6-12.1-23.4-13.1v-7.4h56zm141.9 147.5v-7.5c19.6-1.8 19.6-2.8 19.6-28l-0.9-96.2h-1.9l-56.9 129.8h-3.8l-53.2-126h-0.9l-3.7 67.2c-1.9 19.6-1.9 29.9-1 39.2c1 11.2 5.6 13.1 21.5 15v7.4h-55.1v-7.4c14-1.9 18.7-4.7 19.6-14c1.9-7.5 2.8-18.7 4.7-43l3.7-49.5c1.9-30.8 1.9-31.7-20.5-33.6v-8.4h38.3l53.2 118.6l54.1-118.6h40.1v7.5c-21.4 1.8-22.4 1.8-21.4 26.1l1.8 85c1 25.2 1.9 26.1 21.5 28v7.5z" />
	<path id="Layer" class="s2" d="m1038.8 140.1l-101.7-138.2c0 0 196-1.9 240.8-1.9c28 0 36.4 11.2 38.2 25.2c-75.6 8.4-140 51.4-177.3 114.9z" />
	<path id="Layer" class="s3" d="m1094.8 214.7l-56-76.5c37.3-62.6 101.7-106.5 177.3-113.9c1 10.2-2.8 20.5-8.4 29.9c-14 23.3-112.9 161.5-112.9 160.5z" />
	<path id="Layer" class="s4" d="m1087.3 437c-15.8 22.4-28 39.2-28 39.2l-125-169c0 0 35.4 0 76.5-1c10.3 52.3 38.3 98.1 76.5 130.8z" />
	<path id="Layer" class="s5" d="m1148.9 350.1c-6.5 10.3-38.2 54.2-61.6 87.8c-38.2-33.6-66.2-79.4-76.5-130.7c44.8 0 96.1-1 114.8-1c35.5 0 33.6 24.3 23.3 43.9z" />
	<path id="Layer" class="s4" d="m1006.1 258.6c0 11.2 0 21.5 1.9 31.8c-80.3 0-181.1 1.8-216.5 1.8c-60.7 0-57.9-43.8-39.2-73.7c17.7-30.8 152.1-217.6 152.1-217.6l121.3 164.4c-13 29.8-20.5 60.6-19.6 93.3z" />
	<path id="Layer" class="s6" d="m1117.2 288.5c0 0-49.5 0.9-109.2 1.9c-0.9-10.3-1.9-21.5-1.9-31.8c0-33.6 6.6-64.4 19.6-93.3z" />
</svg>