<?xml version="1.0" encoding="UTF-8" standalone="no"?>
<!-- Created with Inkscape (http://www.inkscape.org/) -->

<svg
   xmlns:dc="http://purl.org/dc/elements/1.1/"
   xmlns:cc="http://creativecommons.org/ns#"
   xmlns:rdf="http://www.w3.org/1999/02/22-rdf-syntax-ns#"
   xmlns:svg="http://www.w3.org/2000/svg"
   xmlns="http://www.w3.org/2000/svg"
   xmlns:sodipodi="http://sodipodi.sourceforge.net/DTD/sodipodi-0.dtd"
   xmlns:inkscape="http://www.inkscape.org/namespaces/inkscape"
   version="1.1"
   id="svg2"
   xml:space="preserve"
   width="773.89746"
   height="129.46399"
   viewBox="0 0 773.89745 129.46399"
   sodipodi:docname="unimed-logo.svg"
   inkscape:version="0.92.2 (5c3e80d, 2017-08-06)"><metadata
     id="metadata8"><rdf:RDF><cc:Work
         rdf:about=""><dc:format>image/svg+xml</dc:format><dc:type
           rdf:resource="http://purl.org/dc/dcmitype/StillImage" /><dc:title></dc:title></cc:Work></rdf:RDF></metadata><defs
     id="defs6"><clipPath
       clipPathUnits="userSpaceOnUse"
       id="clipPath30"><path
         d="M 0,595.28 H 841.89 V 0 H 0 Z"
         id="path28"
         inkscape:connector-curvature="0" /></clipPath><clipPath
       clipPathUnits="userSpaceOnUse"
       id="clipPath138"><path
         d="M 0,595.28 H 841.89 V 0 H 0 Z"
         id="path136"
         inkscape:connector-curvature="0" /></clipPath><clipPath
       clipPathUnits="userSpaceOnUse"
       id="clipPath158"><path
         d="M 0,595.28 H 841.89 V 0 H 0 Z"
         id="path156"
         inkscape:connector-curvature="0" /></clipPath></defs><sodipodi:namedview
     pagecolor="#ffffff"
     bordercolor="#666666"
     borderopacity="1"
     objecttolerance="10"
     gridtolerance="10"
     guidetolerance="10"
     inkscape:pageopacity="0"
     inkscape:pageshadow="2"
     inkscape:window-width="1600"
     inkscape:window-height="837"
     id="namedview4"
     showgrid="false"
     fit-margin-top="0"
     fit-margin-left="0"
     fit-margin-right="0"
     fit-margin-bottom="0"
     inkscape:zoom="0.59467814"
     inkscape:cx="435.61886"
     inkscape:cy="188.64722"
     inkscape:window-x="-8"
     inkscape:window-y="-8"
     inkscape:window-maximized="1"
     inkscape:current-layer="g26" /><g
     id="g10"
     inkscape:groupmode="layer"
     inkscape:label="selo_unimed_institucional"
     transform="matrix(1.3333333,0,0,-1.3333333,-145.816,368.08466)"><g
       id="g24"><g
         id="g26"
         clip-path="url(#clipPath30)"><g
           id="g32"
           transform="translate(126.7524,184.2109)"><path
             d="M 0,0 C -8.862,0 -16.074,7.215 -16.074,16.079 V 61.73 c 0,8.865 7.212,16.082 16.074,16.082 h 190.955 c 8.869,0 16.084,-7.217 16.084,-16.082 V 0 Z"
             style="fill:#00985e;fill-opacity:1;fill-rule:nonzero;stroke:none"
             id="path34"
             inkscape:connector-curvature="0" /></g><g
           id="g36"
           transform="translate(317.707,263.3359)"><path
             d="m 0,0 h -190.955 c -9.588,0 -17.39,-7.803 -17.39,-17.395 v -45.651 c 0,-9.584 7.802,-17.387 17.39,-17.387 h 205.721 2.626 v 2.617 60.421 C 17.392,-7.803 9.588,0 0,0 m 0,-2.63 c 8.152,0 14.766,-6.602 14.766,-14.765 v -60.421 h -205.721 c -8.152,0 -14.766,6.616 -14.766,14.77 v 45.651 c 0,8.163 6.614,14.765 14.766,14.765 L 0,-2.63"
             style="fill:#ffffff;fill-opacity:1;fill-rule:nonzero;stroke:none"
             id="path38"
             inkscape:connector-curvature="0" /></g><g
           id="g40"
           transform="translate(290.9888,234.8691)"><path
             d="m 0,0 h 7.852 l 11.8,-15.7 H 11.8 l 5.877,-7.849 H 7.852 L 1.975,-15.7 H 5.877 L 0,-7.854 h 5.877 z"
             style="fill:#ffffff;fill-opacity:1;fill-rule:evenodd;stroke:none"
             id="path42"
             inkscape:connector-curvature="0" /></g><g
           id="g44"
           transform="translate(290.9888,234.8691)"><path
             d="m 0,0 h -7.85 l -11.808,-15.7 h 7.86 l -5.879,-7.849 h 9.827 l 5.871,7.849 H -5.928 L 0,-7.854 h -5.875 z"
             style="fill:#ffffff;fill-opacity:1;fill-rule:evenodd;stroke:none"
             id="path46"
             inkscape:connector-curvature="0" /></g><g
           id="g48"
           transform="translate(142.2534,233.2715)"><path
             d="m 0,0 h -8.38 v -13.349 c 0,-6.458 4.805,-8.967 10.892,-8.967 6.615,0 10.997,2.351 10.997,9.449 V 0 H 5.285 v -13.027 c 0,-2.135 -0.476,-3.629 -2.665,-3.629 -2.033,0 -2.62,1.544 -2.62,3.629 z"
             style="fill:#ffffff;fill-opacity:1;fill-rule:evenodd;stroke:none"
             id="path50"
             inkscape:connector-curvature="0" /></g><g
           id="g52"
           transform="translate(157.8442,211.3281)"><path
             d="m 0,0 h 7.899 v 9.452 c 0,0.907 0,2.184 1.438,2.184 1.389,0 1.389,-1.277 1.389,-2.184 V 0 h 7.9 v 11.374 c 0,3.197 -1.547,5.389 -5.768,5.389 -2.234,0 -4.371,-0.908 -5.331,-3.198 H 7.475 v 2.822 H 0 Z"
             style="fill:#ffffff;fill-opacity:1;fill-rule:evenodd;stroke:none"
             id="path54"
             inkscape:connector-curvature="0" /></g><path
           d="m 187.099,234.869 h -7.9 v -5.442 h 7.9 z m -7.9,-23.541 h 7.9 v 16.387 h -7.9 z"
           style="fill:#ffffff;fill-opacity:1;fill-rule:evenodd;stroke:none"
           id="path56"
           inkscape:connector-curvature="0" /><g
           id="g58"
           transform="translate(189.7139,211.3281)"><path
             d="m 0,0 h 7.902 v 9.452 c 0,0.907 0,2.184 1.444,2.184 1.332,0 1.332,-1.277 1.332,-2.184 V 0 h 7.952 v 9.452 c 0,0.907 0,2.184 1.334,2.184 1.436,0 1.436,-1.277 1.436,-2.184 V 0 h 7.91 v 9.82 c 0,3.207 0,6.943 -5.765,6.943 -1.98,0 -4.703,-0.908 -5.236,-2.829 h -0.05 c -0.647,1.979 -2.941,2.829 -5.125,2.829 -2.512,0 -4.648,-0.908 -5.607,-3.198 H 7.472 v 2.822 H 0 Z"
             style="fill:#ffffff;fill-opacity:1;fill-rule:evenodd;stroke:none"
             id="path60"
             inkscape:connector-curvature="0" /></g><g
           id="g62"
           transform="translate(239.3096,217.6279)"><path
             d="m 0,0 v 0.961 c 0,5.552 -2.245,9.502 -8.599,9.502 -6.619,0 -10.141,-2.775 -10.141,-8.272 0,-5.66 3.522,-8.864 10.141,-8.864 2.775,0 5.289,0.323 7.37,0.961 v 4.22 c -1.234,-0.643 -3.209,-1.019 -5.344,-1.019 -2.344,0 -4.212,0.483 -4.378,2.511 z m -10.951,3.469 c -0.104,1.282 0.27,3.204 2.141,3.204 1.762,0 1.971,-1.972 1.971,-3.204 z"
             style="fill:#ffffff;fill-opacity:1;fill-rule:evenodd;stroke:none"
             id="path64"
             inkscape:connector-curvature="0" /></g><g
           id="g66"
           transform="translate(253.1582,219.6016)"><path
             d="m 0,0 c 0,-1.544 -0.268,-3.357 -1.916,-3.357 -1.764,0 -2.032,1.813 -2.032,3.52 0,1.707 0.268,3.417 1.924,3.417 C -0.268,3.58 0,1.87 0,0 M 7.687,-8.273 V 15.268 H -0.211 V 5.979 h -0.057 c -1.225,1.766 -2.829,2.51 -4.961,2.51 -4.91,0 -6.938,-3.893 -6.938,-8.326 0,-4.701 1.919,-8.809 7.207,-8.809 2.56,0 4.162,0.904 5.23,3.365 h 0.053 v -2.992 z"
             style="fill:#ffffff;fill-opacity:1;fill-rule:evenodd;stroke:none"
             id="path68"
             inkscape:connector-curvature="0" /></g><path
           d="m 267.404,238.805 h -1.312 v -31.409 h 1.312 z"
           style="fill:#ffffff;fill-opacity:1;fill-rule:evenodd;stroke:none"
           id="path70"
           inkscape:connector-curvature="0" /><g
           id="g72"
           transform="translate(565.208,180.002)"><path
             d="m 0,0 c -6.971,0 -12.642,5.672 -12.642,12.635 v 69.769 c 0,6.965 5.671,12.633 12.642,12.633 h 110.911 c 6.969,0 12.637,-5.668 12.637,-12.633 V 0 Z"
             style="fill:#00985e;fill-opacity:1;fill-rule:nonzero;stroke:none"
             id="path74"
             inkscape:connector-curvature="0" /></g><g
           id="g76"
           transform="translate(676.1191,276.0635)"><path
             d="m 0,0 h -110.911 c -7.539,0 -13.676,-6.122 -13.676,-13.657 v -69.77 c 0,-7.531 6.137,-13.671 13.676,-13.671 h 122.524 2.053 v 2.067 81.374 C 13.666,-6.122 7.542,0 0,0 m 0,-2.056 c 6.408,0 11.613,-5.197 11.613,-11.601 v -81.374 h -122.524 c -6.416,0 -11.612,5.198 -11.612,11.604 v 69.77 c 0,6.404 5.196,11.601 11.612,11.601 L 0,-2.056"
             style="fill:#ffffff;fill-opacity:1;fill-rule:nonzero;stroke:none"
             id="path78"
             inkscape:connector-curvature="0" /></g><g
           id="g80"
           transform="translate(577.4033,215.4521)"><path
             d="m 0,0 h -6.593 v -10.492 c 0,-5.078 3.777,-7.054 8.566,-7.054 5.201,0 8.645,1.845 8.645,7.431 V 0 H 4.157 v -10.238 c 0,-1.681 -0.385,-2.851 -2.104,-2.851 -1.592,0 -2.053,1.21 -2.053,2.851 z"
             style="fill:#ffffff;fill-opacity:1;fill-rule:evenodd;stroke:none"
             id="path82"
             inkscape:connector-curvature="0" /></g><g
           id="g84"
           transform="translate(589.665,198.1973)"><path
             d="m 0,0 h 6.211 v 7.432 c 0,0.714 0,1.722 1.127,1.722 1.095,0 1.095,-1.008 1.095,-1.722 V 0 h 6.214 v 8.948 c 0,2.519 -1.22,4.239 -4.538,4.239 -1.762,0 -3.44,-0.712 -4.191,-2.52 H 5.874 v 2.224 H 0 Z"
             style="fill:#ffffff;fill-opacity:1;fill-rule:evenodd;stroke:none"
             id="path86"
             inkscape:connector-curvature="0" /></g><path
           d="m 612.666,216.715 h -6.213 v -4.283 h 6.213 z m -6.213,-18.518 h 6.213 v 12.891 h -6.213 z"
           style="fill:#ffffff;fill-opacity:1;fill-rule:evenodd;stroke:none"
           id="path88"
           inkscape:connector-curvature="0" /><g
           id="g90"
           transform="translate(614.7217,198.1973)"><path
             d="m 0,0 h 6.216 v 7.432 c 0,0.714 0,1.722 1.134,1.722 1.049,0 1.049,-1.008 1.049,-1.722 V 0 h 6.249 v 7.432 c 0,0.714 0,1.722 1.059,1.722 1.131,0 1.131,-1.008 1.131,-1.722 V 0 h 6.212 v 7.728 c 0,2.521 0,5.459 -4.537,5.459 -1.551,0 -3.692,-0.712 -4.117,-2.224 h -0.032 c -0.505,1.555 -2.315,2.224 -4.035,2.224 -1.973,0 -3.648,-0.712 -4.409,-2.52 H 5.879 v 2.224 H 0 Z"
             style="fill:#ffffff;fill-opacity:1;fill-rule:evenodd;stroke:none"
             id="path92"
             inkscape:connector-curvature="0" /></g><g
           id="g94"
           transform="translate(653.7295,203.1592)"><path
             d="m 0,0 v 0.751 c 0,4.364 -1.773,7.474 -6.764,7.474 -5.206,0 -7.976,-2.183 -7.976,-6.507 0,-4.453 2.77,-6.971 7.976,-6.971 2.179,0 4.16,0.249 5.795,0.758 v 3.314 c -0.967,-0.505 -2.524,-0.793 -4.201,-0.793 -1.848,0 -3.315,0.375 -3.441,1.974 z m -8.611,2.724 c -0.081,1.005 0.209,2.521 1.678,2.521 1.386,0 1.552,-1.554 1.552,-2.521 z"
             style="fill:#ffffff;fill-opacity:1;fill-rule:evenodd;stroke:none"
             id="path96"
             inkscape:connector-curvature="0" /></g><g
           id="g98"
           transform="translate(664.4727,204.709)"><path
             d="m 0,0 c 0,-1.213 -0.211,-2.646 -1.512,-2.646 -1.387,0 -1.602,1.433 -1.602,2.77 0,1.345 0.215,2.687 1.517,2.687 C -0.211,2.811 0,1.469 0,0 M 6.046,-6.512 V 12.006 H -0.168 V 4.701 h -0.043 c -0.973,1.382 -2.227,1.974 -3.906,1.974 -3.859,0 -5.455,-3.066 -5.455,-6.551 0,-3.695 1.504,-6.927 5.664,-6.927 2.018,0 3.277,0.717 4.11,2.645 h 0.046 v -2.354 z"
             style="fill:#ffffff;fill-opacity:1;fill-rule:evenodd;stroke:none"
             id="path100"
             inkscape:connector-curvature="0" /></g><g
           id="g102"
           transform="translate(620.6533,256.7979)"><path
             d="M 0,0 H 10.28 L 25.634,-20.523 H 15.398 l 7.677,-10.279 H 10.28 L 2.557,-20.564 H 7.679 L 0,-10.286 h 7.679 z"
             style="fill:#ffffff;fill-opacity:1;fill-rule:evenodd;stroke:none"
             id="path104"
             inkscape:connector-curvature="0" /></g><g
           id="g106"
           transform="translate(620.6533,256.7979)"><path
             d="m 0,0 h -10.287 l -15.356,-20.523 h 10.24 l -7.68,-10.279 h 12.796 l 7.726,10.238 H -7.68 L 0,-10.286 h -7.68 z"
             style="fill:#ffffff;fill-opacity:1;fill-rule:evenodd;stroke:none"
             id="path108"
             inkscape:connector-curvature="0" /></g><path
           d="m 670.519,221.87 h -99.708 v -1.03 h 99.708 z"
           style="fill:#ffffff;fill-opacity:1;fill-rule:evenodd;stroke:none"
           id="path110"
           inkscape:connector-curvature="0" /><text
           xml:space="preserve"
           style="font-style:normal;font-weight:normal;font-size:32px;line-height:1.25;font-family:sans-serif;letter-spacing:0px;word-spacing:0px;fill:#000000;fill-opacity:1;stroke:none;stroke-width:0.75"
           x="267.01031"
           y="-41.496178"
           id="text975"
           transform="scale(1,-1)"><tspan
             sodipodi:role="line"
             id="tspan973"
             x="267.01031"
             y="-41.496178"
             style="stroke-width:0.75">Logodownload.org</tspan></text>
</g></g></g></svg>