<svg width="301" height="109" viewBox="0 0 301 109" fill="none" xmlns="http://www.w3.org/2000/svg">
<path d="M23.1872 106.47C11.3712 106.47 1.7552 96.8501 1.7552 85.0315V24.1635C1.7552 12.3435 11.3712 2.72079 23.1872 2.72079H277.794C289.619 2.72079 299.239 12.3435 299.239 24.1635V106.47H23.1872Z" fill="#00985E"/>
<path d="M277.793 0.97012H23.1867C10.4027 0.97012 -1.52588e-05 11.3741 -1.52588e-05 24.1635V85.0314C-1.52588e-05 97.8101 10.4027 108.214 23.1867 108.214H297.481H300.983V104.725V24.1635C300.983 11.3741 290.577 0.97012 277.793 0.97012ZM277.793 4.47678C288.663 4.47678 297.481 13.2795 297.481 24.1635V104.725H23.1867C12.3173 104.725 3.49866 95.9034 3.49866 85.0314V24.1635C3.49866 13.2795 12.3173 4.47678 23.1867 4.47678H277.793Z" fill="white"/>
<path fill-rule="evenodd" clip-rule="evenodd" d="M242.169 38.9259H252.638L268.372 59.8592H257.902L265.738 70.3245H252.638L244.802 59.8592H250.005L242.169 49.3979H250.005L242.169 38.9259Z" fill="white"/>
<path fill-rule="evenodd" clip-rule="evenodd" d="M242.169 38.9259H231.702L215.958 59.8592H226.438L218.6 70.3245H231.702L239.53 59.8592H234.265L242.169 49.3979H234.336L242.169 38.9259Z" fill="white"/>
<path fill-rule="evenodd" clip-rule="evenodd" d="M43.8552 41.056H32.6819V58.8547C32.6819 67.4653 39.0885 70.8107 47.2045 70.8107C56.0245 70.8107 61.8672 67.676 61.8672 58.212V41.056H50.9019V58.4253C50.9019 61.272 50.2672 63.264 47.3485 63.264C44.6379 63.264 43.8552 61.2053 43.8552 58.4253V41.056Z" fill="white"/>
<path fill-rule="evenodd" clip-rule="evenodd" d="M64.6429 70.3139H75.1749V57.7112C75.1749 56.5019 75.1749 54.7992 77.0922 54.7992C78.9442 54.7992 78.9442 56.5019 78.9442 57.7112V70.3139H89.4776V55.1485C89.4776 50.8859 87.4149 47.9632 81.7869 47.9632C78.8082 47.9632 75.9589 49.1739 74.6789 52.2272H74.6096V48.4645H64.6429V70.3139Z" fill="white"/>
<path fill-rule="evenodd" clip-rule="evenodd" d="M103.649 38.926H93.116V46.182H103.649V38.926ZM93.116 70.314H103.649V48.4647H93.116V70.314Z" fill="white"/>
<path fill-rule="evenodd" clip-rule="evenodd" d="M107.136 70.3139H117.672V57.7112C117.672 56.5019 117.672 54.7992 119.597 54.7992C121.373 54.7992 121.373 56.5019 121.373 57.7112V70.3139H131.976V57.7112C131.976 56.5019 131.976 54.7992 133.755 54.7992C135.669 54.7992 135.669 56.5019 135.669 57.7112V70.3139H146.216V57.2205C146.216 52.9445 146.216 47.9632 138.529 47.9632C135.889 47.9632 132.259 49.1739 131.548 51.7352H131.481C130.619 49.0965 127.56 47.9632 124.648 47.9632C121.299 47.9632 118.451 49.1739 117.172 52.2272H117.099V48.4645H107.136V70.3139Z" fill="white"/>
<path fill-rule="evenodd" clip-rule="evenodd" d="M173.263 61.9141V60.6328C173.263 53.2301 170.27 47.9635 161.798 47.9635C152.973 47.9635 148.277 51.6635 148.277 58.9928C148.277 66.5395 152.973 70.8115 161.798 70.8115C165.498 70.8115 168.85 70.3808 171.625 69.5301V63.9035C169.979 64.7608 167.346 65.2621 164.499 65.2621C161.374 65.2621 158.883 64.6181 158.662 61.9141H173.263ZM158.662 57.2888C158.523 55.5795 159.022 53.0168 161.517 53.0168C163.866 53.0168 164.145 55.6461 164.145 57.2888H158.662Z" fill="white"/>
<path fill-rule="evenodd" clip-rule="evenodd" d="M191.728 59.2825C191.728 61.3412 191.371 63.7585 189.174 63.7585C186.822 63.7585 186.464 61.3412 186.464 59.0652C186.464 56.7892 186.822 54.5092 189.03 54.5092C191.371 54.5092 191.728 56.7892 191.728 59.2825ZM201.978 70.3132V38.9252H191.447V51.3105H191.371C189.738 48.9559 187.599 47.9639 184.756 47.9639C178.21 47.9639 175.506 53.1545 175.506 59.0652C175.506 65.3332 178.064 70.8105 185.115 70.8105C188.528 70.8105 190.664 69.6052 192.088 66.3239H192.159V70.3132H201.978Z" fill="white"/>
<path fill-rule="evenodd" clip-rule="evenodd" d="M210.723 33.678H208.973V75.5567H210.723V33.678Z" fill="white"/>
</svg>
